<svg xmlns="http://www.w3.org/2000/svg" viewBox="0 0 120.58 37.05"><defs><style>.cls-1{fill:#fff;fill-rule:evenodd;}</style></defs><g id="Layer_2" data-name="Layer 2"><g id="Layer_1-2" data-name="Layer 1"><path class="cls-1" d="M93.85,10.32H35.64L25.08,0H11.16L0,7.82v2.65H17a1.81,1.81,0,0,1,1.79,1.79V24.79A1.81,1.81,0,0,1,17,26.58H0v2.65l11.16,7.82H25.08L35.43,26.86H93.94a14.62,14.62,0,1,0-.09-16.54Zm20.36,8.21-2.07,3.57-2.06,3.57h-8.25L99.76,22.1,97.7,18.53,99.76,15l2.07-3.57h8.25L112.14,15l2.07,3.58Z"/></g></g></svg>